#define ce2b329463664e43e1607d0384f46ac1NszJo7o8A3Pedgwr_width 16
#define ce2b329463664e43e1607d0384f46ac1NszJo7o8A3Pedgwr_height 16
static char ce2b329463664e43e1607d0384f46ac1NszJo7o8A3Pedgwr_bits[] = {
  0xFF, 0xFF, 0xFD, 0xBF, 0x0B, 0xD0, 0xE7, 0xE7, 0xEF, 0xF7, 0xCF, 0xF3, 
  0xAF, 0xF5, 0x6F, 0xF6, 0x6F, 0xF6, 0xAF, 0xF5, 0xCF, 0xF3, 0x0F, 0xF0, 
  0xE7, 0xE7, 0x0B, 0xD0, 0xFD, 0xBF, 0xFF, 0xFF, };
