#define 46b478bd979f4b9aa1ef9da6d23af832GZGcJCdnPjHIQppj_width 22
#define 46b478bd979f4b9aa1ef9da6d23af832GZGcJCdnPjHIQppj_height 22
static char 46b478bd979f4b9aa1ef9da6d23af832GZGcJCdnPjHIQppj_bits[] = {
  0xFF, 0xFF, 0x3F, 0xFF, 0xFF, 0x3F, 0x0F, 0xFE, 0x3F, 0xF3, 0xF9, 0x3F, 
  0x8D, 0xF7, 0x3F, 0x7D, 0xEE, 0x3F, 0xC6, 0x2D, 0x38, 0xBB, 0x9D, 0x3B, 
  0xBB, 0x63, 0x38, 0x87, 0x3C, 0x3E, 0xFB, 0x0F, 0x3F, 0xFF, 0x81, 0x3F, 
  0xFF, 0x3F, 0x38, 0xFF, 0xFF, 0x3C, 0xFF, 0x07, 0x3E, 0xFF, 0xEB, 0x3F, 
  0xFF, 0xEF, 0x3F, 0xFF, 0xEF, 0x3F, 0xFF, 0xDF, 0x3F, 0xFF, 0xFF, 0x3F, 
  0xFF, 0xFF, 0x3F, 0xFF, 0xFF, 0x3F, };
