#define 301f3c12779740a0f7d41e7437ba582eplcec9cBSpGahPig_width 22
#define 301f3c12779740a0f7d41e7437ba582eplcec9cBSpGahPig_height 22
static char 301f3c12779740a0f7d41e7437ba582eplcec9cBSpGahPig_bits[] = {
  0xFF, 0xFF, 0x3F, 0xFF, 0xE0, 0x3F, 0x3F, 0x9F, 0x3F, 0xBF, 0xBF, 0x3F, 
  0xDF, 0x71, 0x3F, 0xDF, 0x6E, 0x3F, 0xDF, 0x6E, 0x3F, 0xDF, 0x6E, 0x3F, 
  0xDF, 0x71, 0x3F, 0xDF, 0x7B, 0x3F, 0xDF, 0x7F, 0x3F, 0xDF, 0x7F, 0x3F, 
  0xDF, 0x7F, 0x3F, 0xBF, 0xBF, 0x3F, 0xBF, 0xBB, 0x3F, 0x3F, 0x9B, 0x3F, 
  0x7F, 0xDF, 0x3F, 0x7F, 0xDF, 0x3F, 0x7F, 0xDF, 0x3F, 0xFF, 0xE0, 0x3F, 
  0xFF, 0xFF, 0x3F, 0xFF, 0xFF, 0x3F, };
