#define 3f9b97ac7933453c85ec3a8adb49feeejQ9bt0wTgiC65w8g_width 16
#define 3f9b97ac7933453c85ec3a8adb49feeejQ9bt0wTgiC65w8g_height 16
static char 3f9b97ac7933453c85ec3a8adb49feeejQ9bt0wTgiC65w8g_bits[] = {
  0xFF, 0xFF, 0x1F, 0xF8, 0x0F, 0xF0, 0x07, 0xE0, 0x07, 0xE0, 0x07, 0xE0, 
  0x67, 0xE6, 0x77, 0xEE, 0x87, 0xE0, 0x8F, 0xF1, 0x0F, 0xF0, 0x4F, 0xF5, 
  0x1F, 0xF8, 0x3F, 0xFC, 0xFF, 0xFF, 0xFF, 0xFF, };
