#define f5dc88022d18492ea6769b98921e0a5aUvT7HPFFeGcrDDT7_width 16
#define f5dc88022d18492ea6769b98921e0a5aUvT7HPFFeGcrDDT7_height 16
static char f5dc88022d18492ea6769b98921e0a5aUvT7HPFFeGcrDDT7_bits[] = {
  0xFF, 0xFF, 0xFF, 0xFB, 0xFF, 0xF5, 0xEF, 0xEE, 0x57, 0xF7, 0x2F, 0xFA, 
  0x1F, 0xFC, 0x0F, 0xDE, 0x17, 0xD5, 0xBB, 0xD6, 0xDD, 0xDB, 0xEB, 0xEC, 
  0xF7, 0xF7, 0x7F, 0xF8, 0xFF, 0xFF, 0xFF, 0xFF, };
