#define 824c3668a0844210c964e12f83c144e4dy8xmxKsVnnbTEOb_width 22
#define 824c3668a0844210c964e12f83c144e4dy8xmxKsVnnbTEOb_height 22
static char 824c3668a0844210c964e12f83c144e4dy8xmxKsVnnbTEOb_bits[] = {
  0xFF, 0xFF, 0x3F, 0xFF, 0xBF, 0x3F, 0xFF, 0x5F, 0x3F, 0xFF, 0xEF, 0x3E, 
  0xFF, 0xF7, 0x3D, 0xBF, 0xFA, 0x3E, 0x5F, 0x7C, 0x3F, 0x3F, 0xB8, 0x3F, 
  0x1F, 0xD0, 0x3F, 0x3F, 0xE0, 0x3F, 0x5F, 0xF0, 0x3F, 0xEF, 0xE8, 0x3F, 
  0xF7, 0xE5, 0x3B, 0xFB, 0xDE, 0x3A, 0x7D, 0xFF, 0x3A, 0xBB, 0x7F, 0x3B, 
  0xD7, 0x9F, 0x3D, 0xEF, 0xFF, 0x3E, 0xFF, 0x0F, 0x3F, 0xFF, 0xFF, 0x3F, 
  0xFF, 0xFF, 0x3F, 0xFF, 0xFF, 0x3F, };
