#define 67ae760eaaa64924c492c46151d37f46mewyG1NBArKDOITT_width 16
#define 67ae760eaaa64924c492c46151d37f46mewyG1NBArKDOITT_height 16
static char 67ae760eaaa64924c492c46151d37f46mewyG1NBArKDOITT_bits[] = {
  0xFF, 0xFF, 0xFF, 0xFF, 0x07, 0xFF, 0xFF, 0xFC, 0xFF, 0xF3, 0x87, 0xF7, 
  0x7F, 0xEE, 0xFF, 0xED, 0xC7, 0xDD, 0xBF, 0xDB, 0x7F, 0xDB, 0x67, 0xDB, 
  0x67, 0xDB, 0xFF, 0xFF, 0xFF, 0xFF, 0xFF, 0xFF, };
