#define be52a82b6ef24281d57d9491aef1484cv5n1Pq988C5WdKha_width 22
#define be52a82b6ef24281d57d9491aef1484cv5n1Pq988C5WdKha_height 22
static char be52a82b6ef24281d57d9491aef1484cv5n1Pq988C5WdKha_bits[] = {
  0xFF, 0xFF, 0x3F, 0xFF, 0xF7, 0x3F, 0x7F, 0x96, 0x3F, 0xFF, 0xED, 0x3F, 
  0x3F, 0x25, 0x3F, 0xDF, 0xD2, 0x3E, 0xFF, 0xED, 0x3F, 0x7F, 0x8E, 0x3F, 
  0x3B, 0x77, 0x37, 0xBD, 0x6A, 0x2F, 0xD6, 0xBD, 0x1A, 0xDA, 0xDA, 0x16, 
  0x5A, 0x6F, 0x16, 0x9A, 0xF7, 0x16, 0xD6, 0x5A, 0x1A, 0xDD, 0xBD, 0x2E, 
  0xBB, 0x5A, 0x37, 0x3F, 0x6F, 0x3F, 0x7F, 0xB7, 0x3F, 0xFF, 0xCC, 0x3F, 
  0xFF, 0xF3, 0x3F, 0xFF, 0xFF, 0x3F, };
